<svg width="current" height="current" viewBox="0 0 32 38" fill="none" xmlns="http://www.w3.org/2000/svg">
<path d="M32 27.8802C31.1272 29.8583 30.7066 30.7425 29.5839 32.4882C28.0122 34.9277 25.7954 37.9739 23.0568 37.9932C20.6186 38.0158 19.9892 36.3701 16.6782 36.3992C13.3704 36.4153 12.681 38.0255 10.2396 37.9997C7.49781 37.9739 5.40115 35.231 3.82944 32.7947C-0.566281 25.9634 -1.03115 17.9543 1.68534 13.6949C3.60807 10.6745 6.64713 8.89973 9.50277 8.89973C12.4122 8.89973 14.24 10.5293 16.6434 10.5293C18.9773 10.5293 20.3972 8.8965 23.762 8.8965C26.3045 8.8965 28.9926 10.3099 30.9153 12.7494C24.6285 16.2667 25.6499 25.4278 32 27.8802ZM21.2068 6.16979C22.4306 4.56603 23.3604 2.30399 23.022 0C21.0265 0.138756 18.6927 1.43919 17.3297 3.12362C16.0932 4.65961 15.0686 6.93778 15.467 9.14174C17.6459 9.21273 19.9007 7.88649 21.2068 6.16979Z" fill="white"/>
</svg>
