<svg width="44" height="44" viewBox="0 0 44 44" fill="none" xmlns="http://www.w3.org/2000/svg">
<path d="M41.36 22.458C41.36 21.028 41.2317 19.653 40.9933 18.333H22V26.143H32.8533C32.3767 28.6547 30.9467 30.7813 28.8017 32.2113V37.2897H35.3467C39.16 33.7697 41.36 28.5997 41.36 22.458Z" fill="#4285F4"/>
<path d="M21.9994 42.1663C27.4444 42.1663 32.0094 40.3696 35.3461 37.2896L28.8011 32.2113C27.0044 33.4213 24.7128 34.1546 21.9994 34.1546C16.7561 34.1546 12.3011 30.6163 10.7061 25.8496H3.99609V31.0563C7.31443 37.6379 14.1161 42.1663 21.9994 42.1663Z" fill="#34A853"/>
<path d="M10.7054 25.8319C10.302 24.6219 10.0637 23.3386 10.0637 22.0002C10.0637 20.6619 10.302 19.3786 10.7054 18.1686V12.9619H3.99536C2.62036 15.6752 1.83203 18.7369 1.83203 22.0002C1.83203 25.2636 2.62036 28.3252 3.99536 31.0386L9.22036 26.9686L10.7054 25.8319Z" fill="#FBBC05"/>
<path d="M21.9994 9.86301C24.9694 9.86301 27.6094 10.8897 29.7178 12.8697L35.4928 7.09467C31.9911 3.83134 27.4444 1.83301 21.9994 1.83301C14.1161 1.83301 7.31443 6.36134 3.99609 12.9613L10.7061 18.168C12.3011 13.4013 16.7561 9.86301 21.9994 9.86301Z" fill="#EA4335"/>
</svg>
