<svg width="0" height="0" class="hidden">
  <symbol fill="none" xmlns="http://www.w3.org/2000/svg" preserveAspectRatio="none" viewBox="0 0 44 44" id="Google">
    <path d="M41.36 22.458C41.36 21.028 41.2317 19.653 40.9933 18.333H22V26.143H32.8533C32.3767 28.6547 30.9467 30.7813 28.8017 32.2113V37.2897H35.3467C39.16 33.7697 41.36 28.5997 41.36 22.458Z" fill="#4285F4"></path>
    <path d="M21.9994 42.1663C27.4444 42.1663 32.0094 40.3696 35.3461 37.2896L28.8011 32.2113C27.0044 33.4213 24.7128 34.1546 21.9994 34.1546C16.7561 34.1546 12.3011 30.6163 10.7061 25.8496H3.99609V31.0563C7.31443 37.6379 14.1161 42.1663 21.9994 42.1663Z" fill="#34A853"></path>
    <path d="M10.7054 25.8319C10.302 24.6219 10.0637 23.3386 10.0637 22.0002C10.0637 20.6619 10.302 19.3786 10.7054 18.1686V12.9619H3.99536C2.62036 15.6752 1.83203 18.7369 1.83203 22.0002C1.83203 25.2636 2.62036 28.3252 3.99536 31.0386L9.22036 26.9686L10.7054 25.8319Z" fill="#FBBC05"></path>
    <path d="M21.9994 9.86301C24.9694 9.86301 27.6094 10.8897 29.7178 12.8697L35.4928 7.09467C31.9911 3.83134 27.4444 1.83301 21.9994 1.83301C14.1161 1.83301 7.31443 6.36134 3.99609 12.9613L10.7061 18.168C12.3011 13.4013 16.7561 9.86301 21.9994 9.86301Z" fill="#EA4335"></path>
  </symbol>
  <symbol fill="none" xmlns="http://www.w3.org/2000/svg" viewBox="0 0 45 43" id="KakaoTalk">
    <path d="M22.5 0C10.0735 0 0 8.06921 0 18.0229C0 24.4582 4.21139 30.1049 10.5464 33.2934C10.2018 34.5009 8.33171 41.0617 8.25728 41.5771C8.25728 41.5771 8.2125 41.9644 8.45935 42.1121C8.7062 42.2598 8.99654 42.145 8.99654 42.145C9.70442 42.0446 17.2054 36.6918 18.5037 35.7623C19.8006 35.9489 21.1362 36.0458 22.5 36.0458C34.9265 36.0458 45 27.9768 45 18.0229C45 8.06921 34.9265 0 22.5 0Z" fill="black"></path>
    <path d="M10.2511 24.375C9.53077 24.375 8.94494 23.7854 8.94494 23.0605V14.8831H6.90682C6.19995 14.8831 5.625 14.2784 5.625 13.5353C5.625 12.7922 6.20017 12.1875 6.90682 12.1875H13.5955C14.3023 12.1875 14.8773 12.7922 14.8773 13.5353C14.8773 14.2784 14.3021 14.8831 13.5955 14.8831H11.5573V23.0605C11.5573 23.7854 10.9715 24.375 10.2511 24.375ZM21.7048 24.3571C21.1601 24.3571 20.7434 24.124 20.6178 23.7492L19.971 21.9648L15.988 21.9646L15.3408 23.7501C15.2156 24.1243 14.7991 24.3571 14.2544 24.3571C13.9679 24.3574 13.6847 24.2926 13.4241 24.1672C13.0641 23.9921 12.7179 23.5108 13.1146 22.2126L16.239 13.5463C16.4591 12.8872 17.1277 12.2081 17.9784 12.1877C18.8316 12.2079 19.5002 12.8872 19.7207 13.5477L22.8438 22.21C23.2413 23.5113 22.8952 23.9928 22.5351 24.1674C22.2745 24.2926 21.9913 24.3573 21.7048 24.3571ZM19.2842 19.5266L17.9795 15.6209L16.6748 19.5266H19.2842ZM24.9459 24.1743C24.2556 24.1743 23.6942 23.6081 23.6942 22.9125V13.564C23.6942 12.8048 24.2924 12.1875 25.0276 12.1875C25.7628 12.1875 26.361 12.8048 26.361 13.564V21.6507H29.1367C29.827 21.6507 30.3885 22.2169 30.3885 22.9125C30.3885 23.6081 29.827 24.1743 29.1367 24.1743H24.9459ZM32.2028 24.3571C31.4824 24.3571 30.8966 23.7398 30.8966 22.9806V13.564C30.8966 12.8048 31.4824 12.1875 32.2028 12.1875C32.9232 12.1875 33.509 12.8048 33.509 13.564V16.5225L37.1533 12.6821C37.3407 12.4846 37.5983 12.3758 37.8778 12.3758C38.2039 12.3758 38.5313 12.524 38.7767 12.7824C39.0055 13.0232 39.142 13.3332 39.1607 13.655C39.1797 13.9797 39.0771 14.2772 38.8725 14.4931L35.8959 17.6294L39.1111 22.118C39.2149 22.262 39.2905 22.4263 39.3336 22.6014C39.3766 22.7765 39.3862 22.9588 39.3619 23.1378C39.3386 23.3169 39.2818 23.4894 39.1948 23.6452C39.1078 23.801 38.9923 23.9371 38.8551 24.0456C38.6292 24.2265 38.3531 24.3241 38.0694 24.3234C37.867 24.3244 37.6672 24.2754 37.486 24.1804C37.3048 24.0854 37.1472 23.947 37.0259 23.7762L33.9627 19.4991L33.5094 19.9767V22.9799C33.509 23.345 33.3712 23.695 33.1263 23.9532C32.8813 24.2114 32.5492 24.3566 32.2028 24.3571Z" fill="#FFE812"></path>
  </symbol>
  <symbol fill="none" xmlns="http://www.w3.org/2000/svg" viewBox="0 0 32 32" id="Naver">
    <path d="M21.6975 17.1268L9.83413 0H0V32H10.3024V14.8732L22.1658 32H32V0H21.6975V17.1268Z" fill="white"></path>
  </symbol>
</svg>