<svg width="0" height="0" class="hidden">
  <symbol xmlns="http://www.w3.org/2000/svg" fill="none" viewBox="0 0 40 40" id="StockU">
    <circle cx="20" cy="20" r="20" fill="#1E1E23"></circle>
    <g clip-path="url(#a)">
      <path fill="#fff" d="M25.918 11l-7.776 2.017-1.138 1.985H14.66L8.968 20.5l5.693 5.53h2.343l1.138 1.953L25.918 30 28 22.452 26.83 20.5 28 18.548 25.918 11zm-8.72 4.294l5.922-1.496-3.416 5.791h-6.8l4.295-4.294zm0 10.379l-4.261-4.295h6.8l3.416 5.791-5.921-1.496h-.033zm7.581.553L21.363 20.5l3.416-5.726 1.66 5.726-1.66 5.726z"></path>
    </g>
    <circle cx="20" cy="20" r="19.5" stroke="#000" stroke-opacity=".05"></circle>
    <defs>
      <clipPath id="a">
        <path fill="#fff" d="M0 0h19v19H0z" transform="translate(9 11)"></path>
      </clipPath>
    </defs>
  </symbol>
  <symbol xmlns="http://www.w3.org/2000/svg" fill="none" viewBox="0 0 40 40" id="StockAMZN.O">
    <circle cx="20" cy="20" r="20" fill="#1E1E23"></circle>
    <g fill-rule="evenodd" clip-path="url(#a)" clip-rule="evenodd">
      <path fill="#fff" d="M21.584 20.817c-.309.617-.84 1.015-1.413 1.149-.087 0-.22.043-.353.043-.97 0-1.544-.75-1.544-1.854 0-1.414.839-2.075 1.897-2.386.574-.131 1.237-.176 1.9-.176v.53c0 1.016.043 1.81-.487 2.694zm.486-5.254c-.574.044-1.237.088-1.899.175-1.015.134-2.03.31-2.867.708-1.633.662-2.737 2.075-2.737 4.15 0 2.606 1.676 3.93 3.797 3.93.705 0 1.279-.09 1.807-.22.84-.266 1.545-.752 2.384-1.635.485.662.62.973 1.457 1.678.22.087.442.087.617-.043a75.864 75.864 0 0 0 1.942-1.679c.222-.176.178-.442.044-.661-.484-.619-.971-1.15-.971-2.341V15.65c0-1.678.134-3.224-1.102-4.371-1.015-.926-2.605-1.28-3.84-1.28h-.531c-2.25.13-4.632 1.102-5.163 3.885-.089.354.177.486.354.53l2.471.309c.265-.045.398-.266.441-.485.22-.972 1.015-1.458 1.897-1.547h.178c.53 0 1.104.22 1.412.663.353.53.31 1.237.31 1.856v.352z"></path>
      <path fill="#FF9A00" d="M30.998 24.978v-.002a.95.95 0 0 0-.14-.498l-.01-.013-.01-.013c-.088-.097-.173-.133-.265-.173-.274-.106-.672-.163-1.152-.164-.345 0-.725.033-1.107.117l-.001-.026-.384.128-.007.004-.218.07v.01a3.403 3.403 0 0 0-.702.394c-.134.1-.245.233-.25.436a.407.407 0 0 0 .145.313.466.466 0 0 0 .359.097l.019-.002.014-.002c.188-.04.462-.067.783-.112.275-.03.567-.053.82-.053.178 0 .34.012.45.036a.503.503 0 0 1 .136.046.398.398 0 0 1 .01.11c.003.212-.086.605-.21.988-.12.384-.265.769-.362 1.024a.52.52 0 0 0-.038.194.423.423 0 0 0 .129.31c.087.082.2.115.294.115h.005a.592.592 0 0 0 .364-.14c.976-.877 1.316-2.28 1.33-3.069l-.002-.125zm-2.894 1.216a.685.685 0 0 0-.298.067c-.107.043-.216.092-.32.135l-.151.064-.198.079v.002c-2.146.87-4.4 1.381-6.486 1.426-.077.002-.154.002-.228.002-3.281.003-5.958-1.52-8.657-3.02a.616.616 0 0 0-.286-.075.499.499 0 0 0-.337.13.462.462 0 0 0-.143.336.532.532 0 0 0 .21.412c2.535 2.2 5.312 4.246 9.048 4.248.073 0 .147-.002.221-.004 2.377-.052 5.064-.856 7.15-2.167l.013-.008a7.3 7.3 0 0 0 .803-.555.64.64 0 0 0 .27-.498c-.007-.342-.297-.574-.611-.574z"></path>
    </g>
    <circle cx="20" cy="20" r="19.5" stroke="#000" stroke-opacity=".05"></circle>
    <defs>
      <clipPath id="a">
        <path fill="#fff" d="M0 0h20v20H0z" transform="translate(11 10)"></path>
      </clipPath>
    </defs>
  </symbol>
  <symbol xmlns="http://www.w3.org/2000/svg" fill="none" viewBox="0 0 40 40" id="StockGOOGL.O">
    <circle cx="20" cy="20" r="20" fill="#F3F5F7"></circle>
    <path fill="#4285F4" d="M30.56 20.25c0-.78-.07-1.53-.2-2.25H20v4.26h5.92c-.26 1.37-1.04 2.53-2.21 3.31v2.77h3.57c2.08-1.92 3.28-4.74 3.28-8.09z"></path>
    <path fill="#34A853" d="M20 31c2.97 0 5.46-.98 7.28-2.66l-3.57-2.77c-.98.66-2.23 1.06-3.71 1.06-2.86 0-5.29-1.93-6.16-4.53h-3.66v2.84C11.99 28.53 15.7 31 20 31z"></path>
    <path fill="#FBBC05" d="M13.84 22.09c-.22-.66-.35-1.36-.35-2.09 0-.73.13-1.43.35-2.09v-2.84h-3.66C9.43 16.55 9 18.22 9 20c0 1.78.43 3.45 1.18 4.93l2.85-2.22.81-.62z"></path>
    <path fill="#EA4335" d="M20 13.38c1.62 0 3.06.56 4.21 1.64l3.15-3.15C25.45 10.09 22.97 9 20 9c-4.3 0-8.01 2.47-9.82 6.07l3.66 2.84c.87-2.6 3.3-4.53 6.16-4.53z"></path>
    <circle cx="20" cy="20" r="19.5" stroke="#000" stroke-opacity=".05"></circle>
  </symbol>
  <symbol xmlns="http://www.w3.org/2000/svg" fill="none" viewBox="0 0 40 40" id="StockMSFT.O">
    <circle cx="20" cy="20" r="20" fill="#F3F5F7"></circle>
    <g clip-path="url(#a)">
      <path fill="#F3F3F3" d="M10 10h20v20H10V10z"></path>
      <path fill="#F35325" d="M10.87 10.87h8.695v8.695H10.87v-8.696z"></path>
      <path fill="#81BC06" d="M20.435 10.87h8.695v8.695h-8.695v-8.696z"></path>
      <path fill="#05A6F0" d="M10.87 20.435h8.695v8.695H10.87v-8.695z"></path>
      <path fill="#FFBA08" d="M20.435 20.435h8.695v8.695h-8.695v-8.695z"></path>
    </g>
    <circle cx="20" cy="20" r="19.5" stroke="#000" stroke-opacity=".05"></circle>
    <defs>
      <clipPath id="a">
        <path fill="#fff" d="M0 0h20v20H0z" transform="translate(10 10)"></path>
      </clipPath>
    </defs>
  </symbol>
  <symbol xmlns="http://www.w3.org/2000/svg" fill="none" viewBox="0 0 40 40" id="StockTSLA.O">
    <circle cx="20" cy="20" r="20" fill="#E82127"></circle>
    <path fill="#fff" d="M20.001 32.906l3.078-17.31c2.934 0 3.859.322 3.993 1.635 0 0 1.968-.734 2.96-2.224-3.873-1.795-7.765-1.876-7.765-1.876l-2.27 2.766H20l-2.27-2.766s-3.893.08-7.765 1.876c.991 1.49 2.96 2.224 2.96 2.224.134-1.313 1.059-1.635 3.973-1.637L20 32.906z"></path>
    <path fill="#fff" d="M20 12.333c3.131-.024 6.715.484 10.384 2.083.49-.883.616-1.273.616-1.273-4.01-1.586-7.766-2.13-11-2.143-3.234.014-6.99.557-11 2.143 0 0 .179.48.616 1.273 3.668-1.6 7.252-2.107 10.384-2.083z"></path>
    <circle cx="20" cy="20" r="19.5" stroke="#000" stroke-opacity=".05"></circle>
  </symbol>
  <symbol fill="none" xmlns="http://www.w3.org/2000/svg" viewBox="0 0 40 40" id="StockAAPL.O">
    <circle cx="20" cy="20" r="20" fill="#929294"></circle>
    <g clip-path="url(#clip0_14382_21982)">
      <path d="M27.4965 15.7097C27.3832 15.7978 25.369 16.9182 25.369 19.4485C25.369 22.369 27.9245 23.4013 28 23.4264C27.9874 23.502 27.5972 24.8363 26.653 26.2211C25.8222 27.4296 24.9284 28.6507 23.594 28.6507C22.2596 28.6507 21.9072 27.8576 20.3714 27.8576C18.8607 27.8576 18.332 28.6758 17.1109 28.6758C15.8898 28.6758 15.0338 27.5429 14.0519 26.1707C12.919 24.5468 12 22.0417 12 19.6499C12 15.8356 14.4799 13.7962 16.9347 13.7962C18.2313 13.7962 19.3139 14.6522 20.1322 14.6522C20.9001 14.6522 22.1086 13.7459 23.594 13.7459C24.1605 13.7459 26.1747 13.7962 27.4965 15.7097ZM20.2329 13.5319C20.1322 13.5319 20.0315 13.5193 19.9685 13.5067C19.9559 13.4563 19.9308 13.3053 19.9308 13.1542C19.9308 12.1345 20.4469 11.1275 21.0134 10.4854C21.7183 9.6546 22.9142 9.03777 23.8961 9C23.9213 9.1133 23.9339 9.25177 23.9339 9.39024C23.9339 10.3973 23.5059 11.4044 22.9017 12.1345C22.247 12.9402 21.1267 13.5319 20.2329 13.5319Z" fill="white"></path>
    </g>
    <circle cx="20" cy="20" r="19.5" stroke="black" stroke-opacity="0.05"></circle>
    <defs>
      <clipPath id="clip0_14382_21982">
        <rect width="16" height="19.6758" fill="white" transform="translate(12 9)"></rect>
      </clipPath>
    </defs>
  </symbol>
</svg>